<svg width="16" height="16" viewBox="0 0 16 16" fill="none" xmlns="http://www.w3.org/2000/svg">
<path d="M14 4.66666V11.3333C14 13.3333 13 14.6667 10.6667 14.6667H5.33333C3 14.6667 2 13.3333 2 11.3333V4.66666C2 2.66666 3 1.33333 5.33333 1.33333H10.6667C13 1.33333 14 2.66666 14 4.66666Z" stroke="#696979" stroke-miterlimit="10" stroke-linecap="round" stroke-linejoin="round"/>
<path d="M10.3333 1.33333V6.57332C10.3333 6.86665 9.98665 7.01332 9.77331 6.81998L8.22668 5.39335C8.10002 5.27335 7.89998 5.27335 7.77331 5.39335L6.22668 6.81998C6.01335 7.01332 5.66667 6.86665 5.66667 6.57332V1.33333H10.3333Z" stroke="#696979" stroke-miterlimit="10" stroke-linecap="round" stroke-linejoin="round"/>
<path d="M8.83333 9.33333H11.6667" stroke="#696979" stroke-miterlimit="10" stroke-linecap="round" stroke-linejoin="round"/>
<path d="M6 12H11.6667" stroke="#696979" stroke-miterlimit="10" stroke-linecap="round" stroke-linejoin="round"/>
</svg>
