<svg width="16" height="16" viewBox="0 0 16 16" fill="none" xmlns="http://www.w3.org/2000/svg">
<path d="M6.73999 7.43335H4.97333C4.55333 7.43335 4.21334 7.77332 4.21334 8.19332V11.6066H6.73999V7.43335V7.43335Z" stroke="#696979" stroke-miterlimit="10" stroke-linecap="round" stroke-linejoin="round"/>
<path d="M8.50751 4.39998H7.49416C7.07416 4.39998 6.73417 4.73999 6.73417 5.15999V11.6H9.26085V5.15999C9.26085 4.73999 8.92751 4.39998 8.50751 4.39998Z" stroke="#696979" stroke-miterlimit="10" stroke-linecap="round" stroke-linejoin="round"/>
<path d="M11.0321 8.56665H9.26542V11.6H11.7921V9.32666C11.7854 8.90666 11.4454 8.56665 11.0321 8.56665Z" stroke="#696979" stroke-miterlimit="10" stroke-linecap="round" stroke-linejoin="round"/>
<path d="M6 14.6667H10C13.3333 14.6667 14.6667 13.3333 14.6667 9.99999V5.99999C14.6667 2.66666 13.3333 1.33333 10 1.33333H6C2.66667 1.33333 1.33333 2.66666 1.33333 5.99999V9.99999C1.33333 13.3333 2.66667 14.6667 6 14.6667Z" stroke="#696979" stroke-linecap="round" stroke-linejoin="round"/>
</svg>
