<svg width="16" height="16" viewBox="0 0 16 16" fill="none" xmlns="http://www.w3.org/2000/svg">
<path d="M7.34667 13H5C4.58667 13 4.22 12.9867 3.89333 12.94C2.14 12.7467 1.66667 11.92 1.66667 9.66667V6.33333C1.66667 4.08 2.14 3.25333 3.89333 3.06C4.22 3.01333 4.58667 3 5 3H7.30667" stroke="#696979" stroke-linecap="round" stroke-linejoin="round"/>
<path d="M10.0133 3H11C11.4133 3 11.78 3.01333 12.1067 3.06C13.86 3.25333 14.3333 4.08 14.3333 6.33333V9.66667C14.3333 11.92 13.86 12.7467 12.1067 12.94C11.78 12.9867 11.4133 13 11 13H10.0133" stroke="#696979" stroke-linecap="round" stroke-linejoin="round"/>
<path d="M10 1.33334V14.6667" stroke="#696979" stroke-linecap="round" stroke-linejoin="round"/>
<path d="M5.33333 5.66666V10.3333" stroke="#696979" stroke-linecap="round" stroke-linejoin="round"/>
</svg>
